<?xml version="1.0" standalone="no"?><!DOCTYPE svg PUBLIC "-//W3C//DTD SVG 1.1//EN" "http://www.w3.org/Graphics/SVG/1.1/DTD/svg11.dtd"><svg t="1606133639971" class="icon" viewBox="0 0 1024 1024" version="1.1" xmlns="http://www.w3.org/2000/svg" p-id="3728" xmlns:xlink="http://www.w3.org/1999/xlink" width="200" height="200"><defs><style type="text/css">@font-face { font-family: element-icons; src: url("chrome-extension://moombeodfomdpjnpocobemoiaemednkg/fonts/element-icons.woff") format("woff"), url("chrome-extension://moombeodfomdpjnpocobemoiaemednkg/fonts/element-icons.ttf ") format("truetype"); }
</style></defs><path d="M513.4 97.2c-220.5 0-399.2 156.4-399.2 349.3 0 110.3 58.5 208.4 149.7 272.5v176.7l174.9-106.1c24.2 4 49.1 6.3 74.6 6.3 220.5 0 399.2-156.4 399.2-349.3 0.1-193-178.7-349.4-399.2-349.4z m124.8 474.1H388.7c-13.8 0-25-11.2-25-25s11.2-25 25-25h249.5c13.8 0 25 11.2 25 25s-11.2 25-25 25z m49.9-149.8H338.8c-13.8 0-25-11.2-25-25s11.2-25 25-25h349.3c13.8 0 25 11.2 25 25 0 13.9-11.2 25-25 25z" p-id="3729"></path></svg>