<svg t="1606132696499" class="icon" viewBox="0 0 1024 1024" version="1.1" xmlns="http://www.w3.org/2000/svg" p-id="2815" xmlns:xlink="http://www.w3.org/1999/xlink" width="128" height="128"><defs><style type="text/css">@font-face { font-family: element-icons; src: url("chrome-extension://moombeodfomdpjnpocobemoiaemednkg/fonts/element-icons.woff") format("woff"), url("chrome-extension://moombeodfomdpjnpocobemoiaemednkg/fonts/element-icons.ttf ") format("truetype"); }
</style></defs><path d="M449.173333 549.009067c0.7552-0.0896 1.506133-0.187733 2.257067-0.285867 1.962667-0.256 3.9168-0.533333 5.858133-0.849067 0.981333-0.162133 1.9584-0.3456 2.935467-0.5248 1.745067-0.311467 3.490133-0.618667 5.213867-0.981333a189.568 189.568 0 0 0 7.829333-1.8048c0.699733-0.1792 1.3824-0.388267 2.077867-0.571733a183.530667 183.530667 0 0 0 6.510933-1.847467c0.6656-0.2048 1.326933-0.426667 1.988267-0.64a187.5968 187.5968 0 0 0 6.7072-2.269867c0.456533-0.162133 0.9088-0.3328 1.365333-0.4992a188.398933 188.398933 0 0 0 7.773867-3.063466l0.0768-0.034134C567.133867 507.127467 614.4 440.418133 614.4 362.666667c0-67.8912-36.040533-127.355733-90.026667-160.324267a195.9552 195.9552 0 0 0-7.965866-4.603733l-0.8704-0.4608a187.2768 187.2768 0 0 0-22.485334-10.2272c-0.896-0.337067-1.787733-0.686933-2.692266-1.015467a185.2288 185.2288 0 0 0-10.2016-3.323733c-2.056533-0.610133-4.113067-1.220267-6.199467-1.762134-1.723733-0.443733-3.473067-0.823467-5.213867-1.224533a186.8032 186.8032 0 0 0-8.802133-1.792c-2.0352-0.362667-4.0704-0.725333-6.122667-1.019733-1.6128-0.234667-3.242667-0.426667-4.872533-0.618667a193.8304 193.8304 0 0 0-6.724267-0.669867c-1.429333-0.1152-2.8544-0.238933-4.288-0.324266a190.0928 190.0928 0 0 0-10.500266-0.3456c-0.226133 0-0.443733-0.017067-0.669867-0.017067C323.114667 174.984533 239.112533 259.012267 239.112533 362.666667c0 98.504533 75.8784 179.229867 172.3648 187.054933l-0.093866 0.008533c5.047467 0.405333 10.133333 0.669867 15.2832 0.669867 5.4144 0 10.7648-0.2816 16.064-0.7296a188.1088 188.1088 0 0 0 6.442666-0.661333z" fill="#bfcbd9" p-id="2816"></path><path d="M532.608 524.5824a337.143467 337.143467 0 0 0-13.896533-4.189867 339.127467 339.127467 0 0 0-10.965334-2.888533c-0.896-0.2176-1.8048-0.413867-2.705066-0.622933a339.2 339.2 0 0 0-20.100267-4.091734c-1.416533-0.2432-2.820267-0.529067-4.241067-0.7552-2.5344-0.405333-5.098667-0.7296-7.6544-1.079466a348.117333 348.117333 0 0 0-8.213333-1.045334 355.677867 355.677867 0 0 0-16.776533-1.442133c-1.847467-0.1152-3.6864-0.247467-5.538134-0.3328-5.256533-0.238933-10.5344-0.401067-15.850666-0.401067s-10.594133 0.162133-15.850667 0.401067c-1.851733 0.085333-3.694933 0.2176-5.538133 0.3328a333.533867 333.533867 0 0 0-16.776534 1.442133c-2.752 0.3072-5.482667 0.674133-8.213333 1.045334-2.555733 0.349867-5.115733 0.669867-7.6544 1.079466-1.4208 0.226133-2.824533 0.512-4.241067 0.7552a339.895467 339.895467 0 0 0-20.100266 4.091734c-0.900267 0.213333-1.8048 0.405333-2.705067 0.622933a344.448 344.448 0 0 0-13.486933 3.605333 343.253333 343.253333 0 0 0-11.374934 3.473067c-119.978667 39.146667-210.7136 142.912-231.0528 270.229333-0.388267 2.474667-0.7296 4.962133-1.066666 7.453867a342.920533 342.920533 0 0 0-1.928534 17.3824l-0.064 0.853333a344.900267 344.900267 0 0 0-1.1008 27.498667c0 0.3584 0.0256 0.708267 0.0256 1.066667h-0.0256v7.035733c0.2432 12.040533 1.109333 23.927467 2.5728 35.630933h677.166934c1.745067-13.986133 2.747733-28.206933 2.747733-42.666666 0-151.517867-98.760533-279.901867-235.392-324.484267z" fill="#bfcbd9" p-id="2817"></path><path d="M938.461867 776.529067V776.533333c-0.546133-141.5296-108.7616-257.5744-246.984534-270.673066a154.4064 154.4064 0 0 1-25.877333 2.2144c-8.866133 0-17.540267-0.7936-25.992533-2.235734-10.679467 1.006933-21.162667 2.653867-31.4496 4.846934a384.704 384.704 0 0 1 54.9888 35.985066 385.826133 385.826133 0 0 1 9.655466 7.812267c0.866133 0.725333 1.7408 1.4336 2.602667 2.1632a383.4368 383.4368 0 0 1 11.328 10.0352c0.789333 0.7296 1.5616 1.476267 2.346667 2.210133a390.711467 390.711467 0 0 1 9.1648 8.874667c0.836267 0.836267 1.6768 1.664 2.5088 2.5088 3.592533 3.665067 7.125333 7.3856 10.5728 11.191467 0.413867 0.456533 0.814933 0.930133 1.224533 1.386666a388.488533 388.488533 0 0 1 9.096533 10.530134c0.721067 0.866133 1.442133 1.728 2.154667 2.5984a384.6912 384.6912 0 0 1 37.508267 54.818133l1.117866 2.013867a385.480533 385.480533 0 0 1 7.313067 13.7728l0.256 0.494933a379.4048 379.4048 0 0 1 7.163733 15.112533l0.580267 1.326934a375.509333 375.509333 0 0 1 6.097067 14.536533l0.418133 1.045333c2.0736 5.290667 4.036267 10.6368 5.879467 16.042667l0.064 0.196267a383.872 383.872 0 0 1 4.9792 15.799466l0.426666 1.442134a381.636267 381.636267 0 0 1 7.927467 33.002666 383.581867 383.581867 0 0 1 5.930667 43.6096h129.019733v-42.666666h-0.021333zM586.2784 486.024533l-0.021333 0.021334c1.361067 0.814933 2.752 1.5744 4.142933 2.346666-1.3824-0.776533-2.769067-1.5488-4.1216-2.368z" fill="#bfcbd9" p-id="2818"></path><path d="M668.4416 550.677333a155.136 155.136 0 0 0 23.035733-2.1504c-0.533333-0.0512-1.058133-0.132267-1.595733-0.1792 72.942933-11.938133 128.6144-75.2256 128.6144-151.547733 0-60.821333-35.3536-113.378133-86.6304-138.261333A152.9984 152.9984 0 0 0 665.6 243.541333c-13.422933 0-26.440533 1.732267-38.848 4.9664a229.960533 229.960533 0 0 1 17.826133 39.300267h-0.0128a232.064 232.064 0 0 1 7.4752 27.003733l0.029867 0.132267c1.28 6.045867 2.321067 12.177067 3.118933 18.385067 0.0512 0.3968 0.0896 0.797867 0.1408 1.194666a229.201067 229.201067 0 0 1 1.4208 16.631467c0.042667 0.8448 0.093867 1.681067 0.128 2.525867 0.1152 2.9824 0.187733 5.9776 0.187734 8.9856 0 3.682133-0.1152 7.342933-0.285867 10.9824-0.0512 1.092267-0.128 2.180267-0.196267 3.272533a239.744 239.744 0 0 1-0.6144 7.889067c-0.106667 1.117867-0.209067 2.231467-0.3328 3.345066a229.056 229.056 0 0 1-1.237333 9.4592c-0.059733 0.401067-0.106667 0.810667-0.1664 1.211734-0.554667 3.515733-1.207467 7.0016-1.92 10.466133-0.2048 0.994133-0.4352 1.979733-0.6528 2.9696a225.361067 225.361067 0 0 1-1.800533 7.586133c-0.273067 1.070933-0.546133 2.141867-0.836267 3.204267-0.763733 2.811733-1.578667 5.597867-2.4448 8.362667-0.183467 0.5888-0.3456 1.181867-0.533333 1.7664-1.070933 3.323733-2.222933 6.613333-3.434667 9.8688-0.311467 0.840533-0.6528 1.668267-0.977067 2.504533a230.237867 230.237867 0 0 1-7.7952 17.8688c-0.298667 0.6144-0.584533 1.2416-0.891733 1.856a227.434667 227.434667 0 0 1-4.8896 9.2544c-0.32 0.576-0.661333 1.134933-0.9856 1.706667a227.293867 227.293867 0 0 1-4.369067 7.364266c-0.4864 0.789333-0.981333 1.570133-1.476266 2.3552a227.498667 227.498667 0 0 1-4.7872 7.223467c-0.337067 0.4864-0.661333 0.981333-0.9984 1.467733a231.176533 231.176533 0 0 1-10.769067 14.058667 384.938667 384.938667 0 0 1 63.7696 41.966933z" fill="#bfcbd9" p-id="2819"></path></svg>