<?xml version="1.0" standalone="no"?><!DOCTYPE svg PUBLIC "-//W3C//DTD SVG 1.1//EN" "http://www.w3.org/Graphics/SVG/1.1/DTD/svg11.dtd"><svg t="1606134126293" class="icon" viewBox="0 0 1024 1024" version="1.1" xmlns="http://www.w3.org/2000/svg" p-id="4799" xmlns:xlink="http://www.w3.org/1999/xlink" width="200" height="200"><defs><style type="text/css">@font-face { font-family: element-icons; src: url("chrome-extension://moombeodfomdpjnpocobemoiaemednkg/fonts/element-icons.woff") format("woff"), url("chrome-extension://moombeodfomdpjnpocobemoiaemednkg/fonts/element-icons.ttf ") format("truetype"); }
</style></defs><path d="M403.626667 299.946667h205.44c63.573333 0 112-137.813333 112-137.813334 0-41.173333-4.053333-72.533333-74.666667-74.666666-70.613333-2.133333-87.466667 49.28-138.24 49.28-52.053333 0-77.866667-40.533333-141.866667-49.28-64-8.746667-74.666667 33.493333-74.666666 74.666666 0 0 48.426667 137.813333 112 137.813334zM620.373333 342.613333H403.626667c-239.786667 0-298.88 471.253333-298.88 471.253334 0 61.866667 50.133333 124.16 112 124.16h590.08c61.866667 0 112-62.08 112-124.16 0.213333 0-58.666667-471.253333-298.453334-471.253334zM564.053333 448l40.533334 4.693333c-3.413333 8.106667-7.466667 16.213333-12.16 24.746667h96v33.493333c-18.346667 62.933333-75.52 106.88-171.733334 132.053334l-19.2-34.773334c29.866667-7.253333 55.466667-16.213333 76.8-26.666666-11.093333-11.52-21.973333-21.546667-32.64-30.08l27.093334-20.48c10.88 9.173333 22.186667 20.266667 34.346666 33.493333 20.266667-14.293333 35.626667-31.146667 45.866667-50.986667H565.333333c-15.146667 15.786667-33.706667 30.72-55.893333 44.373334l-24.32-31.786667c38.826667-21.76 65.28-47.786667 78.933333-78.08z m-207.573333 15.786667c23.893333 11.093333 46.72 25.813333 68.053333 44.373333l-21.333333 33.066667c-22.613333-20.053333-45.226667-35.413333-68.053333-45.866667l21.333333-31.573333z m82.986667 88.32v-103.253334h40.106666v194.56H439.466667v-51.84c-26.453333 13.013333-59.093333 25.813333-98.133334 38.4l-15.786666-36.693333c43.093333-11.52 81.066667-25.386667 113.92-41.173333z m247.466666 279.466666c-90.026667-20.053333-146.986667-53.546667-170.88-100.266666-27.946667 45.653333-87.466667 79.36-178.773333 101.12l-16.213333-36.693334c82.133333-16.64 135.253333-43.733333 159.146666-81.066666H330.666667v-38.826667h162.986666c1.493333-10.24 2.133333-20.266667 2.133334-29.653333h38.4c0 7.466667-0.64 17.493333-1.706667 29.653333h162.56v38.826667h-151.68c28.373333 39.253333 81.706667 65.92 160 80.213333l-16.426667 36.693333z" p-id="4800"></path></svg>