<svg id="图层_1" data-name="图层 1" xmlns="http://www.w3.org/2000/svg" viewBox="0 0 299.93 59.71"><defs><style>.cls-1{fill:#fff;}</style></defs><title>存储平台logo-全白</title><path class="cls-1" d="M47.78,2.25H16.49A15.48,15.48,0,0,0,6.91,5.19,8.76,8.76,0,0,0,3,12.4V48.6a8.75,8.75,0,0,0,3.91,7.21,15.46,15.46,0,0,0,9.58,2.94M47.78,52H21.58Q11,52,11,44.18V16.81Q11,9,21.58,9h26.2V19.17h-19q-5.28,0-5.28,2.35v18q0,2.36,5.28,2.35h19Z"/><path class="cls-1" d="M88.85,9.07V51.83H83L58.82,20.75l1,31.08H53.31V9.07l4.74,0L83.24,40.35V9.07Z"/><path class="cls-1" d="M100.84,15.43V25.77h22.11l-1,6.35H100.84v19.6H94.41V9.13h28.53l-1,6.3Z"/><polygon class="cls-1" points="123.45 46.95 126.65 46.95 126.15 50.16 122.94 50.16 123.45 46.95"/><polygon class="cls-1" points="120.65 50.31 122.45 50.31 122.17 52.11 120.36 52.11 120.65 50.31"/><polygon class="cls-1" points="119.04 45.37 120.69 45.37 120.43 47.02 118.78 47.02 119.04 45.37"/><polygon class="cls-1" points="134.45 15.31 154.68 15.31 155.65 9.02 129.05 9.02 127.11 32.12 149.36 32.12 147.43 45.48 127.11 45.48 126.88 46.98 129.24 46.98 128.85 49.45 130.25 49.45 130.03 50.86 128.63 50.86 128.83 49.57 126.48 49.57 126.14 51.78 153.71 51.78 155.65 25.71 133.48 25.71 134.45 15.31"/><path class="cls-1" d="M167.18,24.45l5.34-11.79h-4.1V10.18h5.21l.78-1.76h5.28l-.78,1.76h18.37v2.48H177.73l-4.63,9.84h1.69V38.84h-4.89V24.45Zm24.23,1.17h6.25V28h-7V38.58h-7.1V36.24h2.41V28h-9.58V25.62h9.05l5.15-6.45H177.41V16.69h19.35v2.15Z"/><path class="cls-1" d="M202.55,21.32H200l3.91-13h4.43v.07L204.77,20.8H207V38.71h-4.43ZM213.37,16V35.65h2v2.87h-6.38v-20h-1.63V16ZM209,14.35h4.43V8.68H209Zm18.76-4.89h3.65l-2.54,7.95h1.89v2.41h-9L220,23.27h10V38.45H215.91V28.22h-2.48l4.17-8.4h-3.06V17.41h4.1V12.59h-3.32V10.18h3.32V8.29h4.43v1.89h3v2.41h-3v4.82H225ZM220.4,36.11h5.47v-4H220.4Zm.06-6.51h5.41V25.75h-5.41Z"/><path class="cls-1" d="M246.59,28.55V11.09H234.86V8.68h28.4v2.41H251.41V28.55H264V31H251.41v8.14h-4.82V31H234.15V28.55ZM240.2,13.7,245,26h-5.15L235.19,13.7ZM258.38,26h-5.21l4.17-12.31h5.21Z"/><path class="cls-1" d="M267.17,19.49,272.32,8h5.28l-4,8.92h17.2l-2.35-6.51h5.41l3.65,10H291.8l-.33-1Zm1.43,3.19h27.68V39H268.61Zm4.82,13.81h18V25.16h-18Z"/><path class="cls-1" d="M172,48.72l.88.22a3,3,0,0,1-1,1.66,2.76,2.76,0,0,1-1.77.57,3.17,3.17,0,0,1-1.76-.44,2.75,2.75,0,0,1-1-1.27,4.54,4.54,0,0,1-.35-1.79,3.94,3.94,0,0,1,.4-1.82,2.73,2.73,0,0,1,1.14-1.18,3.32,3.32,0,0,1,1.62-.4,2.74,2.74,0,0,1,1.69.51,2.65,2.65,0,0,1,1,1.44l-.87.21a2.07,2.07,0,0,0-.67-1.06,1.8,1.8,0,0,0-1.11-.33,2.16,2.16,0,0,0-1.29.37,2,2,0,0,0-.73,1,4,4,0,0,0-.21,1.28,4.07,4.07,0,0,0,.25,1.49,1.85,1.85,0,0,0,.77,1,2.17,2.17,0,0,0,1.14.31,1.9,1.9,0,0,0,1.26-.43A2.19,2.19,0,0,0,172,48.72Z"/><path class="cls-1" d="M174.32,51.07V44.38h.88v5.89h3.29v.79Z"/><path class="cls-1" d="M179.65,47.81a3.63,3.63,0,0,1,.89-2.61,3,3,0,0,1,2.31-.94,3.2,3.2,0,0,1,1.67.44,2.89,2.89,0,0,1,1.13,1.23,4,4,0,0,1,.39,1.79,3.93,3.93,0,0,1-.41,1.82,2.8,2.8,0,0,1-1.16,1.21,3.32,3.32,0,0,1-1.62.41,3.16,3.16,0,0,1-1.69-.46A2.93,2.93,0,0,1,180,49.48,3.77,3.77,0,0,1,179.65,47.81Zm.91,0a2.68,2.68,0,0,0,.65,1.9,2.27,2.27,0,0,0,3.27,0,2.84,2.84,0,0,0,.64-2,3.42,3.42,0,0,0-.28-1.42,2.12,2.12,0,0,0-.81-.94,2.19,2.19,0,0,0-1.19-.34,2.26,2.26,0,0,0-1.62.65A2.88,2.88,0,0,0,180.56,47.82Z"/><path class="cls-1" d="M191.94,44.38h.88v3.86a4.57,4.57,0,0,1-.23,1.6,2,2,0,0,1-.82,1,2.91,2.91,0,0,1-1.56.37,3.21,3.21,0,0,1-1.54-.32,1.85,1.85,0,0,1-.85-.94,4.47,4.47,0,0,1-.26-1.68V44.38h.88v3.86a3.76,3.76,0,0,0,.16,1.28,1.23,1.23,0,0,0,.56.64,1.93,1.93,0,0,0,1,.22,1.84,1.84,0,0,0,1.39-.44,2.55,2.55,0,0,0,.41-1.7Z"/><path class="cls-1" d="M194.67,51.07V44.38H197a5.59,5.59,0,0,1,1.19.1,2.27,2.27,0,0,1,1,.48,2.73,2.73,0,0,1,.79,1.14,4.49,4.49,0,0,1,.26,1.59A4.68,4.68,0,0,1,200,49a3.28,3.28,0,0,1-.46,1,2.42,2.42,0,0,1-.61.61,2.48,2.48,0,0,1-.8.33,4.55,4.55,0,0,1-1.07.11Zm.88-.79H197a3.46,3.46,0,0,0,1-.12,1.48,1.48,0,0,0,.6-.35,2.11,2.11,0,0,0,.49-.85,4.13,4.13,0,0,0,.18-1.29,3.11,3.11,0,0,0-.34-1.61,1.73,1.73,0,0,0-.84-.75,3.46,3.46,0,0,0-1.14-.14h-1.4Z"/><path class="cls-1" d="M204.74,51.07V44.38h.91l3.51,5.25V44.38H210v6.68h-.91l-3.51-5.25v5.25Z"/><path class="cls-1" d="M211.89,51.07V44.38h4.83v.79h-3.95v2h3.7V48h-3.7v2.27h4.1v.79Z"/><path class="cls-1" d="M218.17,48.92l.83-.07a1.84,1.84,0,0,0,.28.82,1.5,1.5,0,0,0,.67.52,2.55,2.55,0,0,0,1,.2,2.46,2.46,0,0,0,.89-.15,1.24,1.24,0,0,0,.58-.41,1,1,0,0,0,.19-.57.87.87,0,0,0-.18-.55,1.35,1.35,0,0,0-.6-.39,11.84,11.84,0,0,0-1.19-.33,6.08,6.08,0,0,1-1.29-.42,1.81,1.81,0,0,1-.71-.62,1.52,1.52,0,0,1-.23-.83,1.7,1.7,0,0,1,.29-.95,1.78,1.78,0,0,1,.84-.67,3.19,3.19,0,0,1,1.23-.23,3.35,3.35,0,0,1,1.31.24,1.89,1.89,0,0,1,.87.7,2,2,0,0,1,.33,1.05l-.85.06a1.37,1.37,0,0,0-.46-1,1.8,1.8,0,0,0-1.16-.32,1.87,1.87,0,0,0-1.17.29.88.88,0,0,0-.37.71.76.76,0,0,0,.26.59,3.52,3.52,0,0,0,1.33.48,8.84,8.84,0,0,1,1.48.43,2,2,0,0,1,.86.68,1.66,1.66,0,0,1,.28,1,1.82,1.82,0,0,1-.31,1,2,2,0,0,1-.88.73,3.06,3.06,0,0,1-1.29.26,3.84,3.84,0,0,1-1.52-.26,2.13,2.13,0,0,1-1-.8A2.26,2.26,0,0,1,218.17,48.92Z"/><path class="cls-1" d="M226.77,51.07V45.17h-2.2v-.79h5.3v.79h-2.21v5.89Z"/><path class="cls-1" d="M234,51.07V44.38h4.51v.79h-3.62v2.07H238V48h-3.14v3Z"/><path class="cls-1" d="M240.17,51.07V44.38h.88v6.68Z"/><path class="cls-1" d="M243,51.07V44.38h.88v5.89h3.29v.79Z"/><path class="cls-1" d="M248.57,51.07V44.38h4.83v.79h-3.95v2h3.7V48h-3.7v2.27h4.1v.79Z"/><path class="cls-1" d="M257.82,48.92l.83-.07a1.84,1.84,0,0,0,.28.82,1.51,1.51,0,0,0,.67.52,2.55,2.55,0,0,0,1,.2,2.46,2.46,0,0,0,.89-.15,1.24,1.24,0,0,0,.58-.41,1,1,0,0,0,.19-.57.87.87,0,0,0-.18-.55,1.35,1.35,0,0,0-.6-.39,11.79,11.79,0,0,0-1.19-.33,6.07,6.07,0,0,1-1.29-.42,1.81,1.81,0,0,1-.71-.62,1.53,1.53,0,0,1-.23-.83,1.7,1.7,0,0,1,.29-.95,1.78,1.78,0,0,1,.84-.67,3.19,3.19,0,0,1,1.23-.23,3.35,3.35,0,0,1,1.31.24,1.89,1.89,0,0,1,.87.7,2,2,0,0,1,.33,1.05l-.85.06a1.37,1.37,0,0,0-.46-1,1.8,1.8,0,0,0-1.16-.32,1.87,1.87,0,0,0-1.17.29.88.88,0,0,0-.37.71.76.76,0,0,0,.26.59,3.52,3.52,0,0,0,1.33.48,8.84,8.84,0,0,1,1.48.43,2,2,0,0,1,.86.68,1.66,1.66,0,0,1,.28,1,1.82,1.82,0,0,1-.31,1,2,2,0,0,1-.88.73,3.05,3.05,0,0,1-1.29.26,3.84,3.84,0,0,1-1.52-.26,2.13,2.13,0,0,1-1-.8A2.26,2.26,0,0,1,257.82,48.92Z"/><path class="cls-1" d="M266.6,51.07V48.23L264,44.38h1.08l1.32,2q.36.57.68,1.13.3-.52.73-1.18l1.29-2h1l-2.67,3.85v2.83Z"/><path class="cls-1" d="M271,48.92l.83-.07a1.84,1.84,0,0,0,.28.82,1.51,1.51,0,0,0,.67.52,2.55,2.55,0,0,0,1,.2,2.46,2.46,0,0,0,.89-.15,1.24,1.24,0,0,0,.58-.41,1,1,0,0,0,.19-.57.87.87,0,0,0-.18-.55,1.35,1.35,0,0,0-.6-.39,11.75,11.75,0,0,0-1.19-.33,6.06,6.06,0,0,1-1.29-.42,1.81,1.81,0,0,1-.71-.62,1.53,1.53,0,0,1-.23-.83,1.7,1.7,0,0,1,.29-.95,1.78,1.78,0,0,1,.84-.67,3.19,3.19,0,0,1,1.23-.23,3.35,3.35,0,0,1,1.31.24,1.89,1.89,0,0,1,.87.7,2,2,0,0,1,.33,1.05l-.85.06a1.37,1.37,0,0,0-.46-1,1.8,1.8,0,0,0-1.16-.32,1.87,1.87,0,0,0-1.17.29.88.88,0,0,0-.37.71.76.76,0,0,0,.26.59,3.52,3.52,0,0,0,1.33.48,8.83,8.83,0,0,1,1.48.43,2,2,0,0,1,.86.68,1.66,1.66,0,0,1,.28,1,1.82,1.82,0,0,1-.31,1,2,2,0,0,1-.88.73,3.06,3.06,0,0,1-1.29.26,3.85,3.85,0,0,1-1.52-.26,2.13,2.13,0,0,1-1-.8A2.25,2.25,0,0,1,271,48.92Z"/><path class="cls-1" d="M279.62,51.07V45.17h-2.2v-.79h5.3v.79h-2.21v5.89Z"/><path class="cls-1" d="M284,51.07V44.38h4.83v.79H284.9v2h3.7V48h-3.7v2.27H289v.79Z"/><path class="cls-1" d="M290.57,51.07V44.38h1.33l1.58,4.73q.22.66.32,1,.11-.36.36-1.07l1.6-4.65h1.19v6.68h-.85V45.47l-1.94,5.59h-.8l-1.93-5.69v5.69Z"/></svg>